<svg fill="none" xmlns="http://www.w3.org/2000/svg">

    <!--skils-->
    <g id="css">
        <path id="Vector" d="M22.1325 101.154L13.71 7.4375H106.29L97.8562 101.139L59.9437 111.562L22.1325 101.154Z" fill="#1572B6"/>
        <path id="Vector_2" d="M60 103.597L90.6375 95.174L97.845 15.1019H60V103.597Z" fill="#33A9DC"/>
        <path id="Vector_3" d="M60 49.054H75.3375L76.395 37.2842H60V25.7896H89.0625L88.785 28.8724L85.9387 60.5487H60V49.054Z" fill="white"/>
        <path id="Vector_4" d="M60.0711 78.9045L60.0186 78.9193L47.1112 75.4609L46.2862 66.2942H34.6499L36.2737 84.3413L60.0149 90.8788L60.0711 90.864V78.9045Z" fill="#EBEBEB"/>
        <path id="Vector_5" d="M74.3513 60.0615L72.9563 75.4534L60.03 78.9119V90.8714L83.79 84.3412L83.9663 82.4001L85.98 60.0615H74.3513Z" fill="white"/>
        <path id="Vector_6" d="M60.0411 25.7896V37.2842H32.0436L31.8111 34.6997L31.2824 28.8724L31.0049 25.7896H60.0411ZM59.9999 49.054V60.5487H47.2536L47.0211 57.9642L46.4961 52.1369L46.2186 49.054H59.9999Z" fill="#EBEBEB"/>
    </g>

    <g id="gitIcon">
        <g id="akar-icons:github-fill" clip-path="url(#clip0_4537_874)">
        <path id="Vector" fill-rule="evenodd" clip-rule="evenodd" d="M10 0C4.475 0 0 4.475 0 10C0 14.425 2.8625 18.1625 6.8375 19.4875C7.3375 19.575 7.525 19.275 7.525 19.0125C7.525 18.775 7.5125 17.9875 7.5125 17.15C5 17.6125 4.35 16.5375 4.15 15.975C4.0375 15.6875 3.55 14.8 3.125 14.5625C2.775 14.375 2.275 13.9125 3.1125 13.9C3.9 13.8875 4.4625 14.625 4.65 14.925C5.55 16.4375 6.9875 16.0125 7.5625 15.75C7.65 15.1 7.9125 14.6625 8.2 14.4125C5.975 14.1625 3.65 13.3 3.65 9.475C3.65 8.3875 4.0375 7.4875 4.675 6.7875C4.575 6.5375 4.225 5.5125 4.775 4.1375C4.775 4.1375 5.6125 3.875 7.525 5.1625C8.325 4.9375 9.175 4.825 10.025 4.825C10.875 4.825 11.725 4.9375 12.525 5.1625C14.4375 3.8625 15.275 4.1375 15.275 4.1375C15.825 5.5125 15.475 6.5375 15.375 6.7875C16.0125 7.4875 16.4 8.375 16.4 9.475C16.4 13.3125 14.0625 14.1625 11.8375 14.4125C12.2 14.725 12.5125 15.325 12.5125 16.2625C12.5125 17.6 12.5 18.675 12.5 19.0125C12.5 19.275 12.6875 19.5875 13.1875 19.4875C15.1726 18.8173 16.8976 17.5414 18.1197 15.8395C19.3418 14.1375 19.9994 12.0952 20 10C20 4.475 15.525 0 10 0Z" fill="black"/>
        </g>
        <defs>
        <clipPath id="clip0_4537_874">
        <rect width="20" height="20" fill="white"/>
        </clipPath>
        </defs>
    </g>
        
    <g id="react">
        <g id="logos:react" clip-path="url(#clip0_2_5687)">
        <path id="Vector" d="M92.9055 32.7027C91.703 32.2887 90.4903 31.9051 89.2686 31.5523C89.4738 30.7106 89.6627 29.8792 89.8304 29.0623C92.5837 15.6483 90.7838 4.84178 84.6359 1.28375C78.7415 -2.12722 69.1015 1.42949 59.3658 9.93342C58.4063 10.773 57.4681 11.6368 56.552 12.524C55.9388 11.934 55.3148 11.3556 54.6802 10.7888C44.4766 1.69616 34.2492 -2.13608 28.108 1.43215C22.2188 4.85374 20.4749 15.0127 22.9537 27.7254C23.2003 28.9844 23.4787 30.237 23.7887 31.4819C22.341 31.8947 20.9441 32.3342 19.6072 32.8019C7.64431 36.9881 0.00463867 43.5483 0.00463867 50.3529C0.00463867 57.3808 8.20617 64.43 20.666 68.7043C21.6762 69.0495 22.6947 69.3692 23.7208 69.6634C23.3875 71.0042 23.0917 72.354 22.8336 73.7114C20.4705 86.2035 22.3159 96.1223 28.1892 99.5222C34.2554 103.033 44.4369 99.4247 54.3505 90.7268C55.1544 90.0196 55.9406 89.2925 56.7083 88.546C57.7003 89.5066 58.7188 90.4393 59.7626 91.343C69.3659 99.6365 78.85 102.985 84.7176 99.5762C90.7781 96.055 92.7479 85.3995 90.1906 72.4356C89.9891 71.42 89.7632 70.4094 89.5131 69.4047C90.2281 69.1921 90.9299 68.9732 91.614 68.7455C104.567 64.4384 112.995 57.4747 112.995 50.3529C112.995 43.5234 105.109 36.919 92.9055 32.7027ZM90.0961 64.1474C89.4782 64.3525 88.8444 64.5505 88.1982 64.7432C86.7682 60.1995 84.8385 55.3684 82.4768 50.3764C84.7304 45.5036 86.5859 40.734 87.9758 36.22C89.1317 36.5558 90.2533 36.9097 91.3346 37.2832C101.791 40.8961 108.168 46.2372 108.168 50.3529C108.168 54.7367 101.28 60.4277 90.0961 64.1474ZM85.4556 73.3765C86.5864 79.1087 86.7475 84.2916 85.9985 88.3435C85.3258 91.9844 83.9726 94.4115 82.2989 95.3839C78.7384 97.4526 71.1234 94.7637 62.9109 87.6706C61.94 86.8305 60.9926 85.9634 60.0698 85.0703C63.2538 81.5756 66.4356 77.5131 69.5411 73.0008C75.0035 72.5144 80.164 71.7188 84.8438 70.6331C85.0693 71.5426 85.2732 72.4573 85.4556 73.3765ZM38.5256 95.0264C35.0467 96.2592 32.2758 96.2946 30.6008 95.3254C27.0368 93.2624 25.5551 85.298 27.5761 74.6151C27.8164 73.3527 28.0914 72.0972 28.401 70.8502C33.0292 71.8779 38.1522 72.6168 43.6274 73.0624C46.7541 77.4776 50.0277 81.5358 53.327 85.0894C52.6258 85.7703 51.9081 86.4338 51.1744 87.0793C46.7903 90.9252 42.3973 93.654 38.5256 95.0264ZM22.2276 64.1204C16.718 62.2302 12.1679 59.7738 9.04919 57.0933C6.24649 54.6848 4.8319 52.2932 4.8319 50.3529C4.8319 46.2234 10.9656 40.9564 21.1961 37.3766C22.4377 36.9425 23.7371 36.5327 25.0855 36.1482C26.4996 40.7641 28.3543 45.5904 30.5924 50.4707C28.3251 55.4233 26.444 60.3267 25.0162 64.997C24.0796 64.7278 23.1498 64.4355 22.2276 64.1204ZM27.6909 26.7947C25.5674 15.9031 26.9776 7.68706 30.5267 5.62497C34.3066 3.42867 42.6652 6.56011 51.4754 14.4115C52.0499 14.9247 52.6151 15.4482 53.1707 15.9819C49.8878 19.52 46.6442 23.548 43.5453 27.9371C38.2312 28.4315 33.1444 29.2253 28.4677 30.2889C28.1795 29.131 27.9205 27.9661 27.6909 26.7951V26.7947ZM76.43 38.8739C75.3254 36.9589 74.1797 35.0679 72.9939 33.2024C76.599 33.66 80.0532 34.2673 83.2968 35.0098C82.3232 38.1425 81.1094 41.4175 79.6807 44.7753C78.6364 42.7867 77.5526 40.8191 76.43 38.8739ZM56.5542 19.4443C58.7805 21.8652 61.0103 24.5678 63.2035 27.5003C58.7545 27.2894 54.298 27.2886 49.849 27.4977C52.0443 24.5922 54.2931 21.8931 56.5542 19.4443ZM36.5509 38.9071C35.4424 40.8367 34.3788 42.792 33.3612 44.7713C31.9558 41.4255 30.7531 38.1355 29.7711 34.9584C32.9948 34.2346 36.4326 33.6427 40.0148 33.1935C38.8158 35.0704 37.6608 36.9754 36.5509 38.9067V38.9071ZM40.1176 67.8569C36.4168 67.4423 32.9273 66.881 29.7044 66.1767C30.7019 62.9429 31.9311 59.5829 33.3669 56.1653C34.3886 58.1461 35.4566 60.1026 36.5699 62.033C37.7148 64.0176 38.9003 65.9614 40.1176 67.8569ZM56.6875 81.6027C54.3995 79.1255 52.1176 76.3848 49.8891 73.4372C52.0527 73.5222 54.2582 73.5656 56.5 73.5656C58.803 73.5656 61.0796 73.5138 63.3204 73.4137C61.1202 76.4145 58.8988 79.1592 56.6875 81.6027ZM79.7262 55.9907C81.2365 59.446 82.5094 62.7883 83.5202 65.9667C80.2443 66.7171 76.7072 67.3214 72.9803 67.7701C74.1745 65.8699 75.331 63.9461 76.449 61.9998C77.5857 60.0214 78.6783 58.0179 79.7262 55.9907ZM72.2679 59.5794C70.5563 62.5634 68.7486 65.4909 66.8474 68.357C63.4037 68.6018 59.9523 68.7234 56.5 68.7216C52.9836 68.7216 49.5634 68.6118 46.2699 68.3974C44.3191 65.5378 42.4769 62.6053 40.747 59.6059H40.7475C39.0258 56.6225 37.4176 53.5745 35.9264 50.4685C37.4138 47.3618 39.0171 44.3124 40.7329 41.3267L40.7325 41.3271C42.4476 38.3407 44.2752 35.4206 46.2112 32.5734C49.5713 32.3182 53.0171 32.1853 56.4995 32.1853H56.5C59.9983 32.1853 63.4484 32.3195 66.8077 32.5765C68.7242 35.4195 70.5401 38.3295 72.252 41.301C73.9735 44.2801 75.598 47.3147 77.123 50.3999C75.6137 53.5166 73.9943 56.5783 72.2679 59.5794ZM82.2252 5.48056C86.0086 7.67067 87.4801 16.5024 85.1029 28.0842C84.9511 28.8231 84.7807 29.5757 84.5953 30.339C79.9071 29.2528 74.8168 28.4452 69.4873 27.9433C66.3827 23.506 63.1655 19.4717 59.936 15.9792C60.7824 15.1604 61.6489 14.3628 62.5348 13.5871C70.8767 6.30141 78.673 3.42468 82.2252 5.48056ZM56.5 40.2263C62.0723 40.2263 66.5897 44.7603 66.5897 50.3529C66.5897 55.9456 62.0723 60.4795 56.5 60.4795C50.9277 60.4795 46.4102 55.9456 46.4102 50.3529C46.4102 44.7603 50.9277 40.2263 56.5 40.2263Z" fill="#00D8FF"/>
        </g>
        <defs>
        <clipPath id="clip0_2_5687">
        <rect width="113" height="101" fill="white"/>
        </clipPath>
        </defs>
    </g>

    <g id="sass">
        <g id="logos:sass" clip-path="url(#clip0_2_5689)">
        <path id="Vector" d="M100.673 50.0766C96.603 50.0975 93.0653 51.0694 90.1035 52.5063C89.0162 50.3721 87.9295 48.4708 87.738 47.076C87.5246 45.4493 87.2691 44.4561 87.5246 42.5122C87.7805 40.5683 88.9312 37.8001 88.9098 37.589C88.8887 37.3778 88.6538 36.3846 86.3098 36.3637C83.9658 36.3424 81.9413 36.8073 81.7068 37.42C81.4724 38.0326 81.025 39.4273 80.7266 40.8637C80.3216 42.9771 76.0386 50.5198 73.5881 54.471C72.7993 52.9291 72.1174 51.5765 71.968 50.499C71.755 48.8722 71.4991 47.879 71.755 45.9351C72.0109 43.9912 73.1617 41.2235 73.1402 41.0119C73.1187 40.8007 72.8843 39.8075 70.5403 39.7866C68.1958 39.7653 66.1713 40.2302 65.9373 40.8429C65.7029 41.4559 65.4469 42.8923 64.957 44.2871C64.4667 45.6818 58.7769 58.275 57.2852 61.5285C56.6824 62.8453 56.0501 64.1487 55.3886 65.4376C55.3886 65.4376 55.3672 65.501 55.3032 65.6066C55.0954 66.0107 54.8824 66.4122 54.6643 66.811V66.8318C54.3444 67.4028 54.0035 67.9307 53.833 67.9307C53.705 67.9307 53.4706 66.4095 53.8755 64.3387C54.7278 59.9652 56.7524 53.1615 56.7313 52.9291C56.7313 52.8022 57.1148 51.6191 55.4101 51.006C53.7475 50.3934 53.1511 51.4075 53.0017 51.4075C52.8527 51.4075 52.7458 51.7668 52.7458 51.7668C52.7458 51.7668 54.6003 44.118 49.2085 44.118C45.8417 44.118 41.1958 47.7734 38.8943 51.0694C36.278 52.4811 33.6639 53.8968 31.052 55.3166C29.7953 56.0139 28.4951 56.7113 27.2803 57.3661C27.1949 57.2818 27.1099 57.1758 27.0244 57.0915C20.5034 50.1822 8.442 45.3012 8.95339 36.0257C9.14534 32.6449 10.3171 23.7705 32.1178 12.9947C50.0608 4.22583 64.3392 6.65549 66.8111 12.0436C70.3484 19.7349 59.1608 34.0183 40.6204 36.0887C33.5455 36.8708 29.8373 34.1661 28.9 33.152C27.9197 32.0953 27.7703 32.0318 27.4079 32.2435C26.8115 32.5606 27.1949 33.5113 27.4079 34.0605C27.9622 35.4969 30.2422 38.0326 34.0994 39.2796C37.5091 40.378 45.7988 40.991 55.8361 37.1454C67.0666 32.8348 75.8466 20.8546 73.2682 10.8183C70.6893 0.633908 53.641 -2.72556 37.5091 2.95799C27.9197 6.33921 17.52 11.6634 10.0402 18.594C1.15363 26.834 -0.253039 33.997 0.322334 36.9976C2.38984 47.6465 17.2006 54.5771 23.1248 59.7114C22.8263 59.8804 22.5489 60.0286 22.3149 60.1555C19.3526 61.6132 8.05811 67.4658 5.24523 73.6568C2.04891 80.6716 5.75708 85.7009 8.20756 86.3765C15.8154 88.4686 23.6362 84.7076 27.8342 78.4953C32.0323 72.2834 31.5209 64.2119 29.5818 60.5144C29.5604 60.4722 29.5393 60.4296 29.4964 60.3875C30.2637 59.9439 31.052 59.479 31.8194 59.0354C33.2296 58.2088 34.6578 57.4126 36.1029 56.6474C35.3781 58.6126 34.8452 60.958 34.5897 64.3387C34.2698 68.3113 35.9105 73.4665 38.063 75.4947C39.0223 76.3828 40.1515 76.4037 40.8763 76.4037C43.3908 76.4037 44.5205 74.3329 45.7778 71.8819C47.3119 68.8818 48.6971 65.3954 48.6971 65.3954C48.6971 65.3954 46.971 74.8191 51.6595 74.8191C53.3641 74.8191 55.0902 72.6214 55.8575 71.5017V71.5226C55.8575 71.5226 55.9 71.4592 55.9855 71.3114C56.156 71.0368 56.2624 70.8674 56.2624 70.8674V70.8257C56.9443 69.6421 58.4789 66.9587 60.7589 62.5004C63.6998 56.7534 66.5342 49.5696 66.5342 49.5696C66.5342 49.5696 66.7901 51.3232 67.6634 54.239C68.1753 55.9505 69.2401 57.831 70.0929 59.648C69.411 60.5991 68.9846 61.127 68.9846 61.127L69.0061 61.1483C68.4518 61.8665 67.8554 62.6481 67.1945 63.4094C64.8716 66.1558 62.1016 69.3045 61.7178 70.2126C61.2699 71.2901 61.3768 72.0722 62.2296 72.7062C62.8475 73.1711 63.9553 73.234 65.085 73.1711C67.1735 73.0229 68.6437 72.5158 69.3681 72.1991C70.4978 71.7976 71.819 71.1846 73.0548 70.276C75.3352 68.6067 76.72 66.2192 76.5925 63.0714C76.5285 61.3386 75.9531 59.6059 75.2498 57.9787C75.4632 57.6833 75.6547 57.3874 75.8681 57.0915C79.4693 51.8724 82.2612 46.1462 82.2612 46.1462C82.2612 46.1462 82.5171 47.8998 83.3905 50.8161C83.8168 52.2951 84.6907 53.901 85.4575 55.4643C82.0693 58.1903 79.9807 61.3594 79.2349 63.4302C77.8926 67.2759 78.9365 69.0082 80.9185 69.4097C81.8133 69.6 83.092 69.1772 84.0298 68.7757C85.2231 68.3956 86.6297 67.7408 87.9724 66.7684C90.2529 65.0995 92.4474 62.775 92.3195 59.6272C92.2555 58.1903 91.8721 56.7743 91.3392 55.4009C94.2161 54.2182 97.9242 53.563 102.655 54.1122C112.799 55.2953 114.802 61.5706 114.418 64.2123C114.035 66.8531 111.904 68.29 111.201 68.7336C110.497 69.1777 110.263 69.3254 110.327 69.6421C110.412 70.107 110.753 70.0862 111.35 70.0014C112.181 69.8537 116.678 67.8672 116.869 63.0075C117.189 56.7956 111.222 50.0132 100.673 50.0766ZM22.4214 76.2346C19.0542 79.8687 14.3662 81.2421 12.3417 80.0803C10.1681 78.8333 11.0204 73.4665 15.1545 69.6213C17.669 67.2759 20.9083 65.0991 23.0608 63.7683C23.5507 63.4724 24.2755 63.0501 25.1493 62.5217C25.2983 62.437 25.3838 62.3948 25.3838 62.3948L25.8952 62.0776C27.4078 67.5713 25.9591 72.4103 22.4214 76.2346ZM46.9285 59.7114C45.7563 62.543 43.3058 69.7903 41.8141 69.3888C40.5354 69.0508 39.7466 63.5571 41.5582 58.1269C42.4745 55.4009 44.4136 52.147 45.5433 50.8796C47.3759 48.8509 49.4005 48.1744 49.8904 48.9991C50.5087 50.0766 47.6529 57.9365 46.9285 59.7114ZM67.152 69.3041C66.6617 69.5578 66.1932 69.7269 65.9798 69.6C65.8308 69.5153 66.1932 69.1772 66.1932 69.1772C66.1932 69.1772 68.7292 66.473 69.7305 65.2473C70.3063 64.5291 70.9877 63.684 71.7125 62.7329V63.0075C71.7125 66.2405 68.5583 68.4169 67.1516 69.3041H67.152ZM82.7511 65.7756C82.3887 65.5219 82.4527 64.6768 83.6674 62.0355C84.1363 61.0001 85.2441 59.2678 87.1411 57.5985C87.3541 58.2746 87.5035 58.9298 87.4821 59.5424C87.4606 63.6205 84.5202 65.1417 82.7511 65.7756Z" fill="#CD6799"/>
        </g>
        <defs>
        <clipPath id="clip0_2_5689">
        <rect width="117" height="87" fill="white"/>
        </clipPath>
        </defs>
    </g>
    
    <g id="html">
        <path id="Vector" d="M22.1323 102.004L13.7061 7.5H106.294L97.856 101.989L59.9436 112.5L22.1323 102.004Z" fill="#E44F26"/>
        <path id="Vector_2" d="M60 104.468L90.6375 95.9738L97.845 15.2288H60V104.468Z" fill="#F1662A"/>
        <path id="Vector_3" d="M60 50.2762H44.6625L43.605 38.4075H60V26.8162H30.9375L31.215 29.9287L34.0613 61.8675H60V50.2762ZM60 80.3775L59.9475 80.3925L47.04 76.9087L46.215 67.665H34.5787L36.2025 85.86L59.9475 92.4525L60 92.4375V80.3775Z" fill="#EBEBEB"/>
        <path id="Vector_4" d="M59.959 50.2762V61.8675H74.2315L72.889 76.9012L59.959 80.3887V92.4487L83.7227 85.86L83.8952 83.9025L86.6177 53.3887L86.9027 50.2762H59.959ZM59.959 26.8162V38.4075H87.9565L88.189 35.805L88.7177 29.9287L88.9952 26.8162H59.959Z" fill="white"/>
    </g>

    <g id="js">
        <path id="Vector" d="M7.5 7.5H112.5V112.5H7.5V7.5Z" fill="#F5DE19"/>
        <path id="Vector_2" d="M78.0338 89.5312C78.9284 91.3485 80.3183 92.8759 82.0434 93.9375C83.7684 94.9991 85.7584 95.5515 87.7838 95.5313C91.8713 95.5313 94.485 93.4875 94.485 90.6562C94.485 87.2812 91.8 86.0738 87.3 84.105L84.8325 83.0475C77.7075 80.0138 72.9825 76.215 72.9825 68.1825C72.9825 60.7838 78.6075 55.1475 87.4313 55.1475C90.2877 54.9412 93.1416 55.5805 95.637 56.9856C98.1324 58.3907 100.159 60.4994 101.464 63.0488L93.75 67.98C93.2476 66.716 92.3728 65.6345 91.2416 64.879C90.1105 64.1236 88.7764 63.7298 87.4163 63.75C86.8229 63.6906 86.2236 63.7555 85.6567 63.9404C85.0897 64.1254 84.5675 64.4265 84.1234 64.8244C83.6792 65.2224 83.3228 65.7085 83.0769 66.2518C82.831 66.7951 82.7009 67.3837 82.695 67.98C82.695 70.9388 84.5288 72.1388 88.7625 73.98L91.23 75.0375C99.615 78.6338 104.355 82.2975 104.355 90.5363C104.355 99.42 97.3763 104.287 88.005 104.287C84.3537 104.52 80.713 103.691 77.5223 101.901C74.3317 100.11 71.7274 97.4342 70.0238 94.1963L78.0338 89.5312ZM43.1775 90.3863C44.7263 93.135 46.1363 95.46 49.5263 95.46C52.7663 95.46 54.8138 94.1925 54.8138 89.2612V55.71H64.68V89.3925C64.68 99.6075 58.68 104.257 49.9463 104.257C46.8591 104.426 43.7931 103.657 41.1513 102.051C38.5096 100.444 36.4157 98.0761 35.145 95.2575L43.1775 90.3863Z" fill="black"/>
    </g>

    <g id="vscode">
        <path id="Vector" d="M101.535 17.605L81.3541 7.88899C80.2144 7.33948 78.932 7.15814 77.6847 7.37011C76.4373 7.58208 75.2868 8.17686 74.3926 9.07199L8.3301 69.3C7.52857 70.0273 7.04878 71.0432 6.99627 72.1243C6.94376 73.2053 7.32283 74.2629 8.0501 75.0645C8.1376 75.159 8.2251 75.25 8.3196 75.334L13.7131 80.234C14.4179 80.8754 15.325 81.2497 16.2771 81.2919C17.2291 81.3341 18.1658 81.0416 18.9246 80.465L98.4971 20.125C99.0981 19.6689 99.8145 19.3897 100.566 19.3186C101.317 19.2476 102.073 19.3877 102.749 19.7231C103.425 20.0585 103.993 20.5758 104.391 21.217C104.789 21.8581 105 22.5975 105 23.352V23.1175C105 21.9656 104.675 20.8372 104.062 19.862C103.449 18.8868 102.573 18.1045 101.535 17.605Z" fill="#0065A9"/>
        <path id="Vector_2" d="M101.535 94.395L81.3541 104.115C80.2141 104.662 78.9321 104.843 77.6851 104.631C76.4381 104.419 75.2876 103.825 74.3926 102.932L8.3301 42.7C7.52857 41.9727 7.04878 40.9568 6.99627 39.8758C6.94376 38.7947 7.32283 37.7371 8.0501 36.9355C8.1376 36.841 8.2251 36.75 8.3196 36.666L13.7131 31.766C14.4186 31.1219 15.3278 30.7459 16.2822 30.7037C17.2366 30.6615 18.1755 30.9557 18.9351 31.535L98.4971 91.875C99.0981 92.3311 99.8145 92.6104 100.566 92.6814C101.317 92.7524 102.073 92.6123 102.749 92.2769C103.425 91.9415 103.993 91.4242 104.391 90.783C104.789 90.1419 105 89.4025 105 88.648V88.9C104.996 90.0488 104.669 91.1733 104.057 92.1451C103.444 93.1168 102.57 93.8965 101.535 94.395Z" fill="#007ACC"/>
        <path id="Vector_3" d="M81.3539 104.114C80.2139 104.662 78.9319 104.843 77.6849 104.631C76.4379 104.419 75.2874 103.825 74.3924 102.931C74.895 103.428 75.5329 103.764 76.226 103.899C76.9192 104.034 77.6368 103.962 78.2889 103.691C78.941 103.42 79.4987 102.963 79.892 102.376C80.2853 101.79 80.4968 101.1 80.4999 100.394V11.606C80.5005 10.8965 80.2905 10.2028 79.8965 9.61274C79.5025 9.02271 78.9423 8.56288 78.2867 8.29152C77.6312 8.02016 76.9098 7.94946 76.2141 8.0884C75.5183 8.22734 74.8795 8.56965 74.3784 9.07197C75.2728 8.17717 76.423 7.58235 77.6702 7.3698C78.9173 7.15724 80.1997 7.33744 81.3399 7.88547L101.517 17.5875C102.559 18.0845 103.438 18.8657 104.054 19.8411C104.67 20.8165 104.998 21.9463 105 23.1V88.9C105 90.0528 104.675 91.1822 104.061 92.1581C103.447 93.134 102.571 93.9167 101.531 94.416L81.3539 104.114Z" fill="#1F9CF0"/>
    </g>

    <g id="redux">
        <path id="Vector" d="M72.6971 69.5627C76.5688 69.1619 79.5061 65.8242 79.3725 61.8184C79.2393 57.8131 75.9012 54.6086 71.8959 54.6086H71.6291C67.4897 54.7422 64.2856 58.2135 64.4193 62.3525C64.5529 64.3553 65.3537 66.091 66.5553 67.2926C62.016 76.2385 55.0734 82.7807 44.6594 88.2549C37.5832 91.9934 30.2402 93.3287 22.8971 92.3943C16.8889 91.593 12.216 88.923 9.27827 84.5164C5.00614 77.9742 4.60573 70.8975 8.21065 63.8213C10.7475 58.7475 14.7525 55.009 17.2893 53.1398C16.7553 51.4041 15.9541 48.4668 15.5537 46.3307C-3.80574 60.35 -1.80287 79.3094 4.07172 88.2549C8.47745 94.9311 17.4229 99.0701 27.3029 99.0701C29.9729 99.0701 32.643 98.8029 35.3135 98.1357C52.4033 94.7975 65.3541 84.65 72.6971 69.5627ZM96.1955 53.0066C86.0483 41.1234 71.0951 34.5811 54.0053 34.5811H51.8693C50.6676 32.1779 48.1307 30.5754 45.327 30.5754H45.0598C40.9213 30.709 37.7172 34.1803 37.8504 38.3197C37.984 42.325 41.3217 45.5295 45.327 45.5295H45.5938C48.5311 45.3959 51.068 43.5266 52.1361 40.9898H54.5393C64.6865 40.9898 74.2992 43.927 82.9779 49.6684C89.6533 54.0746 94.4598 59.816 97.1299 66.7586C99.3996 72.3664 99.266 77.8406 96.8627 82.5139C93.1246 89.5902 86.8496 93.4623 78.5717 93.4623C73.2311 93.4623 68.1578 91.8598 65.4873 90.6582C64.0188 91.9934 61.3484 94.1295 59.4791 95.4652C65.2205 98.1352 71.0951 99.6041 76.7025 99.6041C89.5197 99.6041 98.9992 92.5275 102.604 85.4512C106.476 77.707 106.209 64.3553 96.1955 53.0066ZM28.3709 71.832C28.5045 75.8377 31.8422 79.0418 35.8475 79.0418H36.1147C40.2537 78.9086 43.4578 75.4369 43.3242 71.2979C43.191 67.2922 39.8529 64.0881 35.8475 64.0881H35.5807C35.3135 64.0881 34.9127 64.0881 34.6463 64.2213C29.1721 55.1422 26.9025 45.2623 27.7037 34.5807C28.2373 26.5697 30.9078 19.6266 35.5807 13.8852C39.4525 8.94508 46.9291 6.5418 52.0029 6.40861C66.1549 6.14139 72.1627 23.7656 72.5635 30.8422C74.2992 31.2426 77.2365 32.1775 79.2393 32.8451C77.6369 11.2156 64.2856 0 51.4688 0C39.4524 0 28.3709 8.67869 23.9647 21.4963C17.8234 38.5865 21.8287 55.009 29.3053 67.9602C28.6381 68.8947 28.2373 70.3635 28.3709 71.8324V71.832Z" fill="#764ABC"/>
    </g>

    <!--social-->

    <g id="github">
        <path id="Vector" fill-rule="evenodd" clip-rule="evenodd" d="M15 0C6.7125 0 0 6.7125 0 15C0 21.6375 4.29375 27.2437 10.2563 29.2313C11.0063 29.3625 11.2875 28.9125 11.2875 28.5188C11.2875 28.1625 11.2688 26.9813 11.2688 25.725C7.5 26.4188 6.525 24.8062 6.225 23.9625C6.05625 23.5312 5.325 22.2 4.6875 21.8438C4.1625 21.5625 3.4125 20.8687 4.66875 20.85C5.85 20.8313 6.69375 21.9375 6.975 22.3875C8.325 24.6562 10.4812 24.0187 11.3438 23.625C11.475 22.65 11.8688 21.9937 12.3 21.6187C8.9625 21.2437 5.475 19.95 5.475 14.2125C5.475 12.5813 6.05625 11.2313 7.0125 10.1813C6.8625 9.80625 6.3375 8.26875 7.1625 6.20625C7.1625 6.20625 8.41875 5.8125 11.2875 7.74375C12.4875 7.40625 13.7625 7.2375 15.0375 7.2375C16.3125 7.2375 17.5875 7.40625 18.7875 7.74375C21.6562 5.79375 22.9125 6.20625 22.9125 6.20625C23.7375 8.26875 23.2125 9.80625 23.0625 10.1813C24.0188 11.2313 24.6 12.5625 24.6 14.2125C24.6 19.9688 21.0938 21.2437 17.7563 21.6187C18.3 22.0875 18.7688 22.9875 18.7688 24.3937C18.7688 26.4 18.75 28.0125 18.75 28.5188C18.75 28.9125 19.0312 29.3813 19.7812 29.2313C22.759 28.2259 25.3465 26.3121 27.1796 23.7592C29.0127 21.2063 29.9991 18.1429 30 15C30 6.7125 23.2875 0 15 0Z"/>
    </g>

    
    <g id="link-chain">
        <g id="Group">
        <path id="Vector" d="M11.2864 8.71333C10.6038 8.03103 9.67822 7.64774 8.71309 7.64774C7.74797 7.64774 6.82235 8.03103 6.13976 8.71333L3.56559 11.2867C2.88299 11.9693 2.49951 12.8951 2.49951 13.8604C2.49951 14.8258 2.88299 15.7516 3.56559 16.4342C4.24819 17.1168 5.174 17.5002 6.13934 17.5002C7.10469 17.5002 8.03049 17.1168 8.71309 16.4342L9.99976 15.1475" stroke="black" stroke-width="1.66667" stroke-linecap="round" stroke-linejoin="round"/>
        <path id="Vector_2" d="M8.71289 11.2867C9.39548 11.969 10.3211 12.3523 11.2862 12.3523C12.2513 12.3523 13.177 11.969 13.8596 11.2867L16.4337 8.71334C17.1163 8.03074 17.4998 7.10493 17.4998 6.13959C17.4998 5.17424 17.1163 4.24844 16.4337 3.56584C15.7511 2.88324 14.8253 2.49976 13.86 2.49976C12.8946 2.49976 11.9688 2.88324 11.2862 3.56584L9.99956 4.8525" stroke="black" stroke-width="1.66667" stroke-linecap="round" stroke-linejoin="round"/>
        </g>
    </g>

    <g id="twitter">
        <path id="Vector" d="M16.875 1.875C8.59152 1.875 1.875 8.59152 1.875 16.875C1.875 25.1585 8.59152 31.875 16.875 31.875C25.1585 31.875 31.875 25.1585 31.875 16.875C31.875 8.59152 25.1585 1.875 16.875 1.875ZM24.0837 13.1819C24.0937 13.3393 24.0937 13.5033 24.0937 13.6641C24.0937 18.5792 20.3504 24.2411 13.51 24.2411C11.4007 24.2411 9.44531 23.6283 7.79799 22.5737C8.09933 22.6071 8.38728 22.6205 8.69531 22.6205C10.4364 22.6205 12.0368 22.0312 13.3125 21.0335C11.6786 21 10.3058 19.9286 9.83705 18.4554C10.4096 18.5391 10.9252 18.5391 11.5145 18.3884C10.6732 18.2175 9.91699 17.7605 9.37438 17.0953C8.83178 16.43 8.53623 15.5973 8.53795 14.7388V14.692C9.03013 14.9699 9.60938 15.1406 10.2154 15.1641C9.70595 14.8245 9.28814 14.3645 8.99903 13.8249C8.70993 13.2852 8.55845 12.6825 8.55804 12.0703C8.55804 11.3772 8.73884 10.7444 9.06362 10.1953C9.99744 11.3449 11.1627 12.2851 12.4837 12.9548C13.8047 13.6245 15.2518 14.0088 16.731 14.0826C16.2054 11.5547 18.0938 9.50893 20.3638 9.50893C21.4353 9.50893 22.3996 9.95759 23.0792 10.6808C23.9196 10.5234 24.7232 10.2087 25.4397 9.78683C25.1618 10.6473 24.5792 11.3739 23.8058 11.8326C24.5558 11.7522 25.279 11.5446 25.9487 11.2533C25.4431 11.9967 24.8103 12.6562 24.0837 13.1819Z" />
    </g>

    <g id="linkedin">
        <g id="entypo-social:linkedin-with-circle" clip-path="url(#clip0_2_5677)">
        <path id="Vector" d="M15.0001 0.600098C7.0471 0.600098 0.600098 7.0471 0.600098 15.0001C0.600098 22.9531 7.0471 29.4001 15.0001 29.4001C22.9531 29.4001 29.4001 22.9531 29.4001 15.0001C29.4001 7.0471 22.9531 0.600098 15.0001 0.600098ZM11.4751 20.9686H8.5591V11.5846H11.4751V20.9686ZM9.9991 10.4326C9.0781 10.4326 8.4826 9.7801 8.4826 8.9731C8.4826 8.1496 9.0961 7.5166 10.0366 7.5166C10.9771 7.5166 11.5531 8.1496 11.5711 8.9731C11.5711 9.7801 10.9771 10.4326 9.9991 10.4326ZM22.1251 20.9686H19.2091V15.7681C19.2091 14.5576 18.7861 13.7356 17.7316 13.7356C16.9261 13.7356 16.4476 14.2921 16.2361 14.8276C16.1581 15.0181 16.1386 15.2881 16.1386 15.5566V20.9671H13.2211V14.5771C13.2211 13.4056 13.1836 12.4261 13.1446 11.5831H15.6781L15.8116 12.8866H15.8701C16.2541 12.2746 17.1946 11.3716 18.7681 11.3716C20.6866 11.3716 22.1251 12.6571 22.1251 15.4201V20.9686Z"/>
        </g>
        <defs>
        <clipPath id="clip0_2_5677">
        <rect width="30" height="30" fill="white"/>
        </clipPath>
        </defs>
    </g>

    <!--logo-->

    <g id="logo">
        <g id="logo 1" clip-path="url(#clip0_2_5809)">
        <path id="Vector" d="M12.5581 0V3.83066C11.5028 3.83066 10.6796 3.98157 10.0882 4.28338C9.49679 4.57357 9.24169 5.15977 9.32287 6.04199L9.86206 11.1785C10.0012 12.4786 9.85626 13.5292 9.42722 14.3301C9.00978 15.131 8.36623 15.7464 7.49655 16.1758C6.63848 16.5938 5.62386 16.8897 4.45271 17.0638C5.69343 17.2495 6.74284 17.5514 7.60092 17.9693C8.45899 18.3871 9.08516 18.9907 9.47941 19.7801C9.87366 20.5695 10.0012 21.6258 9.86206 22.9492L9.32287 28.0857C9.24169 28.9679 9.49679 29.5541 10.0882 29.8443C10.6796 30.146 11.5028 30.297 12.5581 30.297V34.1277C9.35765 34.1277 7.1081 33.6401 5.80939 32.6651C4.52229 31.7016 4.00048 30.0475 4.24398 27.7026L4.76579 22.7227C4.85856 21.8406 4.70782 21.1499 4.31357 20.6507C3.93091 20.1516 3.36272 19.8033 2.60901 19.6059C1.85529 19.3971 0.985626 19.2926 0 19.2926V14.8351C0.97403 14.8351 1.8379 14.7364 2.59162 14.5391C3.34533 14.3301 3.91932 13.9761 4.31357 13.477C4.70782 12.9778 4.85856 12.2871 4.76579 11.4049L4.24398 6.45987C3.98889 4.06861 4.51068 2.39706 5.80939 1.4452C7.1081 0.481734 9.35765 0 12.5581 0Z" />
        <path id="Vector_2" d="M27.633 4.50977C30.5087 4.50977 32.6771 5.62414 34.1381 7.85288C35.6108 10.07 36.3471 13.1636 36.3471 17.1335C36.3471 21.115 35.6108 24.2318 34.1381 26.4838C32.6771 28.7242 30.5087 29.8443 27.633 29.8443C24.7342 29.8443 22.5541 28.7242 21.0931 26.4838C19.6436 24.2318 18.9189 21.115 18.9189 17.1335C18.9189 13.1636 19.6436 10.07 21.0931 7.85288C22.5541 5.62414 24.7342 4.50977 27.633 4.50977ZM27.633 8.49713C26.4039 8.49713 25.5052 9.15879 24.937 10.4821C24.3689 11.7938 24.0847 14.0109 24.0847 17.1335C24.0847 18.1551 24.1022 19.0663 24.1369 19.8672C24.1718 20.6566 24.224 21.3589 24.2935 21.9741L30.1724 9.66374C29.8942 9.22264 29.5463 8.92083 29.1289 8.75831C28.7231 8.5842 28.2244 8.49713 27.633 8.49713ZM31.1465 17.1335C31.1465 15.7986 31.1175 14.6726 31.0595 13.7555L25.511 25.2302C25.7662 25.4739 26.0676 25.6422 26.4154 25.7351C26.775 25.8279 27.1808 25.8744 27.633 25.8744C28.4564 25.8744 29.1231 25.5958 29.6333 25.0387C30.1551 24.4815 30.5377 23.5644 30.7812 22.2875C31.0248 20.999 31.1465 19.281 31.1465 17.1335Z" />
        <path id="Vector_3" d="M48.5002 4.50977C51.3759 4.50977 53.5443 5.62414 55.0053 7.85288C56.478 10.07 57.2142 13.1636 57.2142 17.1335C57.2142 21.115 56.478 24.2318 55.0053 26.4838C53.5443 28.7242 51.3759 29.8443 48.5002 29.8443C45.6012 29.8443 43.4213 28.7242 41.9603 26.4838C40.5108 24.2318 39.7861 21.115 39.7861 17.1335C39.7861 13.1636 40.5108 10.07 41.9603 7.85288C43.4213 5.62414 45.6012 4.50977 48.5002 4.50977ZM48.5002 8.49713C47.2711 8.49713 46.3724 9.15879 45.8042 10.4821C45.2361 11.7938 44.9519 14.0109 44.9519 17.1335C44.9519 18.1551 44.9694 19.0663 45.0041 19.8672C45.0389 20.6566 45.0911 21.3589 45.1607 21.9741L51.0396 9.66374C50.7613 9.22264 50.4134 8.92083 49.9961 8.75831C49.5901 8.5842 49.0915 8.49713 48.5002 8.49713ZM52.0137 17.1335C52.0137 15.7986 51.9847 14.6726 51.9267 13.7555L46.3782 25.2302C46.6332 25.4739 46.9348 25.6422 47.2826 25.7351C47.6422 25.8279 48.048 25.8744 48.5002 25.8744C49.3234 25.8744 49.9902 25.5958 50.5005 25.0387C51.0222 24.4815 51.4049 23.5644 51.6484 22.2875C51.8919 20.999 52.0137 19.281 52.0137 17.1335Z"/>
        <path id="Vector_4" d="M68.1146 29.8095L62.8966 28.1902L71.889 9.26321H61.2964V5.11914H77.4549V8.84532L68.1146 29.8095Z" />
        <path id="Vector_5" d="M84.4419 0C87.6423 0 89.8861 0.481734 91.1732 1.4452C92.4719 2.40867 92.9995 4.06862 92.756 6.42505L92.2342 11.4049C92.1414 12.2871 92.2921 12.9778 92.6864 13.477C93.0807 13.9761 93.6488 14.3301 94.3909 14.5391C95.1447 14.7364 96.0144 14.8351 97 14.8351V19.2926C96.0259 19.2926 95.1621 19.3971 94.4083 19.6059C93.6547 19.8033 93.0807 20.1516 92.6864 20.6507C92.2921 21.1499 92.1414 21.8406 92.2342 22.7227L92.756 27.6678C93.0227 30.0475 92.5009 31.719 91.1905 32.6824C89.8918 33.646 87.6423 34.1277 84.4419 34.1277V30.297C85.5088 30.297 86.3378 30.146 86.9291 29.8443C87.5206 29.5541 87.7699 28.9679 87.6772 28.0857L87.1379 22.9492C86.9988 21.6374 87.1379 20.5868 87.5553 19.7976C87.9844 18.9965 88.6338 18.3871 89.5035 17.9693C90.373 17.5397 91.3935 17.238 92.5646 17.0638C91.3239 16.8781 90.2688 16.5763 89.3991 16.1584C88.5409 15.7405 87.9149 15.1369 87.5206 14.3476C87.1263 13.5466 86.9988 12.4903 87.1379 11.1785L87.6772 6.04199C87.7699 5.15977 87.5147 4.57357 86.9118 4.28338C86.3204 3.98157 85.4971 3.83066 84.4419 3.83066V0Z" />
        <path id="Vector_6" d="M12.2746 42.162C13.2417 42.162 14.0209 42.4023 14.6122 42.8829C15.2037 43.3634 15.635 44.0425 15.9064 44.9201C16.1846 45.7976 16.3238 46.8388 16.3238 48.0438C16.3238 49.1861 16.1568 50.2064 15.8229 51.1048C15.4889 51.9963 15.0054 52.6998 14.3723 53.2151C13.7391 53.7237 12.9703 53.9778 12.0659 53.9778C10.9875 53.9778 10.1108 53.5913 9.43597 52.8181V57.906L6.13818 58.2508V42.5277H9.06028L9.20639 43.7708C9.65862 43.1928 10.1526 42.7819 10.6883 42.5381C11.224 42.2874 11.7528 42.162 12.2746 42.162ZM11.2519 44.5962C10.8692 44.5962 10.5318 44.7112 10.2396 44.941C9.94735 45.1707 9.67948 45.4842 9.43597 45.8812V50.5616C9.66557 50.9028 9.9056 51.1536 10.1561 51.3137C10.4135 51.4739 10.7161 51.554 11.064 51.554C11.6484 51.554 12.1041 51.2894 12.4312 50.76C12.7582 50.2237 12.9216 49.3323 12.9216 48.0856C12.9216 47.1662 12.8555 46.4558 12.7233 45.9543C12.5912 45.446 12.3999 45.0942 12.1493 44.8992C11.8989 44.6971 11.5997 44.5962 11.2519 44.5962Z" />
        <path id="Vector_7" d="M27.9881 50.4258C27.9881 50.8436 28.0437 51.1466 28.1551 51.3346C28.2733 51.5227 28.4612 51.6655 28.7186 51.763L28.0403 53.9361C27.3862 53.8734 26.8332 53.7305 26.3809 53.5077C25.9356 53.2778 25.5843 52.9331 25.3269 52.4735C24.9025 52.9818 24.3598 53.3614 23.6989 53.6122C23.0379 53.8559 22.3631 53.9778 21.6743 53.9778C20.5332 53.9778 19.6218 53.654 18.94 53.0062C18.2651 52.3515 17.9277 51.5123 17.9277 50.4885C17.9277 49.2835 18.3974 48.3537 19.3366 47.699C20.2827 47.0444 21.6116 46.717 23.3231 46.717H24.8155V46.2991C24.8155 45.1639 24.085 44.5962 22.6239 44.5962C22.2692 44.5962 21.8134 44.6485 21.2568 44.7529C20.7002 44.8504 20.1436 44.9931 19.587 45.1812L18.8252 42.9874C19.5419 42.7157 20.2863 42.5102 21.0585 42.3709C21.8377 42.2317 22.5335 42.162 23.1457 42.162C24.7946 42.162 26.0121 42.4998 26.7983 43.1753C27.5915 43.844 27.9881 44.8121 27.9881 46.0797V50.4258ZM22.8117 51.6167C23.1666 51.6167 23.5389 51.5123 23.9285 51.3033C24.3181 51.0875 24.6137 50.7845 24.8155 50.3945V48.5975H24.0015C23.0831 48.5975 22.4083 48.7402 21.9769 49.0258C21.5456 49.3044 21.3299 49.7153 21.3299 50.2586C21.3299 50.6834 21.4585 51.0178 21.716 51.2615C21.9804 51.4984 22.3457 51.6167 22.8117 51.6167Z" />
        <path id="Vector_8" d="M41.6355 42.5277L37.9412 53.6227H34.059L30.3228 42.5277H33.8815L36.0418 51.0944L38.2959 42.5277H41.6355Z" />
        <path id="Vector_9" d="M53.0286 50.4258C53.0286 50.8436 53.0843 51.1466 53.1956 51.3346C53.3139 51.5227 53.5017 51.6655 53.7591 51.763L53.0808 53.9361C52.4267 53.8734 51.8737 53.7305 51.4215 53.5077C50.9762 53.2778 50.6249 52.9331 50.3674 52.4735C49.9431 52.9818 49.4003 53.3614 48.7394 53.6122C48.0784 53.8559 47.4036 53.9778 46.7148 53.9778C45.5738 53.9778 44.6623 53.654 43.9805 53.0062C43.3057 52.3515 42.9683 51.5123 42.9683 50.4885C42.9683 49.2835 43.4379 48.3537 44.3771 47.699C45.3233 47.0444 46.6522 46.717 48.3637 46.717H49.856V46.2991C49.856 45.1639 49.1255 44.5962 47.6645 44.5962C47.3097 44.5962 46.8539 44.6485 46.2973 44.7529C45.7407 44.8504 45.1842 44.9931 44.6276 45.1812L43.8658 42.9874C44.5824 42.7157 45.3268 42.5102 46.099 42.3709C46.8783 42.2317 47.574 42.162 48.1862 42.162C49.8351 42.162 51.0527 42.4998 51.8388 43.1753C52.632 43.844 53.0286 44.8121 53.0286 46.0797V50.4258ZM47.8523 51.6167C48.2071 51.6167 48.5794 51.5123 48.969 51.3033C49.3586 51.0875 49.6543 50.7845 49.856 50.3945V48.5975H49.0421C48.1236 48.5975 47.4488 48.7402 47.0175 49.0258C46.5861 49.3044 46.3704 49.7153 46.3704 50.2586C46.3704 50.6834 46.4992 51.0178 46.7565 51.2615C47.0209 51.4984 47.3862 51.6167 47.8523 51.6167Z" />
        <path id="Vector_10" d="M56.2188 53.6226V42.5277H59.0992L59.3288 43.8126C59.8227 43.2555 60.3444 42.8411 60.8942 42.5695C61.4437 42.2978 62.0699 42.162 62.7726 42.162C63.7188 42.162 64.4633 42.451 65.006 43.0292C65.5486 43.6072 65.8199 44.4221 65.8199 45.4737V53.6226H62.5222V46.4245C62.5222 45.7419 62.4457 45.2683 62.2925 45.0036C62.1464 44.732 61.8682 44.5962 61.4576 44.5962C61.1098 44.5962 60.7759 44.7076 60.4558 44.9306C60.1427 45.1534 59.8296 45.4633 59.5166 45.8603V53.6226H56.2188Z" />
        <path id="Vector_11" d="M76.9314 42.162C77.7174 42.162 78.2985 42.4197 78.6742 42.9351C79.0568 43.4435 79.2481 44.2689 79.2481 45.411V53.6226H76.42V45.7872C76.42 45.3972 76.3817 45.1221 76.3052 44.9619C76.2356 44.8016 76.0894 44.7216 75.8668 44.7216C75.693 44.7216 75.512 44.7738 75.3241 44.8783C75.1433 44.9758 74.9415 45.1639 74.7189 45.4424V53.6226H72.4021V45.7872C72.4021 45.3972 72.3638 45.1221 72.2873 44.9619C72.2177 44.8016 72.0716 44.7216 71.8489 44.7216C71.6751 44.7216 71.4941 44.7738 71.3062 44.8783C71.1254 44.9758 70.9236 45.1639 70.701 45.4424V53.6226H67.8311V42.5277H70.2522L70.4714 43.6037C70.8193 43.1301 71.1707 42.7714 71.5254 42.5277C71.8803 42.2839 72.3012 42.162 72.7882 42.162C73.2056 42.162 73.5604 42.2699 73.8527 42.4859C74.1519 42.6948 74.3641 43.0256 74.4893 43.4783C74.8233 43.0883 75.192 42.7714 75.5955 42.5277C75.9991 42.2839 76.4443 42.162 76.9314 42.162Z"/>
        <path id="Vector_12" d="M91.1004 40.7517L91.8728 43.1754C91.4832 43.3287 91.0274 43.4401 90.5057 43.5097C89.9838 43.5794 89.3751 43.6142 88.6794 43.6142C89.3751 43.9137 89.9038 44.2863 90.2656 44.7321C90.6344 45.1708 90.8187 45.7489 90.8187 46.4664C90.8187 47.1837 90.6274 47.8245 90.2448 48.3886C89.862 48.9458 89.3195 49.3846 88.6168 49.705C87.9141 50.0254 87.0826 50.1856 86.1225 50.1856C85.6633 50.1856 85.2354 50.1438 84.8389 50.0602C84.7205 50.1229 84.6302 50.2133 84.5676 50.3318C84.5049 50.4502 84.4736 50.5721 84.4736 50.6975C84.4736 50.8716 84.5431 51.0283 84.6824 51.1675C84.8285 51.3069 85.1659 51.3765 85.6946 51.3765H87.5105C88.3732 51.3765 89.1176 51.5158 89.7438 51.7944C90.3769 52.0729 90.8674 52.4526 91.2153 52.9331C91.5631 53.4137 91.7371 53.964 91.7371 54.5839C91.7371 55.7191 91.2397 56.6141 90.2448 57.2688C89.2498 57.9234 87.7714 58.2509 85.8094 58.2509C84.3901 58.2509 83.2908 58.1046 82.5117 57.812C81.7393 57.5265 81.2002 57.1156 80.8941 56.5792C80.5949 56.0499 80.4453 55.4196 80.4453 54.6882H83.3673C83.3673 55.0087 83.43 55.2699 83.5552 55.4718C83.6874 55.6808 83.9344 55.8341 84.2962 55.9315C84.6649 56.029 85.1972 56.0778 85.8929 56.0778C86.5956 56.0778 87.1313 56.022 87.5 55.9107C87.8688 55.7992 88.1192 55.646 88.2515 55.4509C88.3906 55.2629 88.4602 55.0505 88.4602 54.8136C88.4602 54.4863 88.3314 54.2217 88.0741 54.0197C87.8166 53.8177 87.4097 53.7167 86.853 53.7167H85.0893C83.8926 53.7167 83.0229 53.4973 82.4803 53.0585C81.9376 52.6128 81.6663 52.0938 81.6663 51.5019C81.6663 51.091 81.7741 50.701 81.9898 50.3318C82.2124 49.9627 82.5221 49.6527 82.9187 49.402C82.209 49.0258 81.701 48.5836 81.3949 48.0752C81.0888 47.5598 80.9358 46.9434 80.9358 46.226C80.9358 45.3902 81.148 44.6729 81.5724 44.0739C81.9968 43.4679 82.5811 43.0013 83.3256 42.674C84.077 42.3467 84.9329 42.1829 85.8929 42.1829C86.7208 42.1968 87.441 42.1412 88.0532 42.0158C88.6654 41.8834 89.2151 41.7059 89.7021 41.4829C90.189 41.2531 90.6552 41.0093 91.1004 40.7517ZM85.9764 44.3246C85.4546 44.3246 85.0406 44.4918 84.7345 44.8262C84.4283 45.1535 84.2753 45.6062 84.2753 46.1843C84.2753 46.7971 84.4319 47.2673 84.745 47.5946C85.058 47.9219 85.4686 48.0857 85.9764 48.0857C87.1034 48.0857 87.667 47.4379 87.667 46.1425C87.667 44.9306 87.1034 44.3246 85.9764 44.3246Z" />
        </g>
        <defs>
        <linearGradient id="paint0_linear_2_5657" x1="-2.05005" y1="36.7549" x2="99.9719" y2="0.679714" gradientUnits="userSpaceOnUse">
        <stop stop-color="#00C0FD"/>
        <stop offset="1" stop-color="#E70FAA"/>
        </linearGradient>
        <linearGradient id="paint1_linear_2_5657" x1="-2.05004" y1="36.755" x2="99.972" y2="0.679755" gradientUnits="userSpaceOnUse">
        <stop stop-color="#00C0FD"/>
        <stop offset="1" stop-color="#E70FAA"/>
        </linearGradient>
        <linearGradient id="paint2_linear_2_5657" x1="-2.04988" y1="36.755" x2="99.9721" y2="0.679757" gradientUnits="userSpaceOnUse">
        <stop stop-color="#00C0FD"/>
        <stop offset="1" stop-color="#E70FAA"/>
        </linearGradient>
        <linearGradient id="paint3_linear_2_5657" x1="-2.05005" y1="36.7549" x2="99.9719" y2="0.679708" gradientUnits="userSpaceOnUse">
        <stop stop-color="#00C0FD"/>
        <stop offset="1" stop-color="#E70FAA"/>
        </linearGradient>
        <linearGradient id="paint4_linear_2_5657" x1="-2.05008" y1="36.7549" x2="99.9719" y2="0.679722" gradientUnits="userSpaceOnUse">
        <stop stop-color="#00C0FD"/>
        <stop offset="1" stop-color="#E70FAA"/>
        </linearGradient>
        <linearGradient id="paint5_linear_2_5657" x1="-0.244359" y1="59.3455" x2="93.6381" y2="39.507" gradientUnits="userSpaceOnUse">
        <stop stop-color="#13B0F5"/>
        <stop offset="1" stop-color="#CA24B4"/>
        </linearGradient>
        <linearGradient id="paint6_linear_2_5657" x1="-0.24451" y1="59.3455" x2="93.638" y2="39.507" gradientUnits="userSpaceOnUse">
        <stop stop-color="#13B0F5"/>
        <stop offset="1" stop-color="#CA24B4"/>
        </linearGradient>
        <linearGradient id="paint7_linear_2_5657" x1="-0.24437" y1="59.3453" x2="93.6381" y2="39.5068" gradientUnits="userSpaceOnUse">
        <stop stop-color="#13B0F5"/>
        <stop offset="1" stop-color="#CA24B4"/>
        </linearGradient>
        <linearGradient id="paint8_linear_2_5657" x1="-0.244339" y1="59.3455" x2="93.6381" y2="39.507" gradientUnits="userSpaceOnUse">
        <stop stop-color="#13B0F5"/>
        <stop offset="1" stop-color="#CA24B4"/>
        </linearGradient>
        <linearGradient id="paint9_linear_2_5657" x1="-0.244556" y1="59.3455" x2="93.6379" y2="39.507" gradientUnits="userSpaceOnUse">
        <stop stop-color="#13B0F5"/>
        <stop offset="1" stop-color="#CA24B4"/>
        </linearGradient>
        <linearGradient id="paint10_linear_2_5657" x1="-0.244473" y1="59.3455" x2="93.638" y2="39.507" gradientUnits="userSpaceOnUse">
        <stop stop-color="#13B0F5"/>
        <stop offset="1" stop-color="#CA24B4"/>
        </linearGradient>
        <linearGradient id="paint11_linear_2_5657" x1="-0.244413" y1="59.3454" x2="93.6381" y2="39.5069" gradientUnits="userSpaceOnUse">
        <stop stop-color="#13B0F5"/>
        <stop offset="1" stop-color="#CA24B4"/>
        </linearGradient>
        <clipPath id="clip0_2_5809">
        <rect width="97" height="59" fill="white"/>
        </clipPath>
        </defs>
    </g>

    <g id="logo-gradient">
        <g id="logo 1" clip-path="url(#clip0_2_5657)">
        <path id="Vector" d="M12.5581 0V3.83066C11.5028 3.83066 10.6796 3.98157 10.0882 4.28338C9.49679 4.57357 9.24169 5.15977 9.32287 6.04199L9.86206 11.1785C10.0012 12.4786 9.85626 13.5292 9.42722 14.3301C9.00978 15.131 8.36623 15.7464 7.49655 16.1758C6.63848 16.5938 5.62386 16.8897 4.45271 17.0638C5.69343 17.2495 6.74284 17.5514 7.60092 17.9693C8.45899 18.3871 9.08516 18.9907 9.47941 19.7801C9.87366 20.5695 10.0012 21.6258 9.86206 22.9492L9.32287 28.0857C9.24169 28.9679 9.49679 29.5541 10.0882 29.8443C10.6796 30.146 11.5028 30.297 12.5581 30.297V34.1277C9.35765 34.1277 7.1081 33.6401 5.80939 32.6651C4.52229 31.7016 4.00048 30.0475 4.24398 27.7026L4.76579 22.7227C4.85856 21.8406 4.70782 21.1499 4.31357 20.6507C3.93091 20.1516 3.36272 19.8033 2.60901 19.6059C1.85529 19.3971 0.985626 19.2926 0 19.2926V14.8351C0.97403 14.8351 1.8379 14.7364 2.59162 14.5391C3.34533 14.3301 3.91932 13.9761 4.31357 13.477C4.70782 12.9778 4.85856 12.2871 4.76579 11.4049L4.24398 6.45987C3.98889 4.06861 4.51068 2.39706 5.80939 1.4452C7.1081 0.481734 9.35765 0 12.5581 0Z" fill="url(#paint0_linear_2_5657)"/>
        <path id="Vector_2" d="M27.633 4.50977C30.5087 4.50977 32.6771 5.62414 34.1381 7.85288C35.6108 10.07 36.3471 13.1636 36.3471 17.1335C36.3471 21.115 35.6108 24.2318 34.1381 26.4838C32.6771 28.7242 30.5087 29.8443 27.633 29.8443C24.7342 29.8443 22.5541 28.7242 21.0931 26.4838C19.6436 24.2318 18.9189 21.115 18.9189 17.1335C18.9189 13.1636 19.6436 10.07 21.0931 7.85288C22.5541 5.62414 24.7342 4.50977 27.633 4.50977ZM27.633 8.49713C26.4039 8.49713 25.5052 9.15879 24.937 10.4821C24.3689 11.7938 24.0847 14.0109 24.0847 17.1335C24.0847 18.1551 24.1022 19.0663 24.1369 19.8672C24.1718 20.6566 24.224 21.3589 24.2935 21.9741L30.1724 9.66374C29.8942 9.22264 29.5463 8.92083 29.1289 8.75831C28.7231 8.5842 28.2244 8.49713 27.633 8.49713ZM31.1465 17.1335C31.1465 15.7986 31.1175 14.6726 31.0595 13.7555L25.511 25.2302C25.7662 25.4739 26.0676 25.6422 26.4154 25.7351C26.775 25.8279 27.1808 25.8744 27.633 25.8744C28.4564 25.8744 29.1231 25.5958 29.6333 25.0387C30.1551 24.4815 30.5377 23.5644 30.7812 22.2875C31.0248 20.999 31.1465 19.281 31.1465 17.1335Z" fill="url(#paint1_linear_2_5657)"/>
        <path id="Vector_3" d="M48.5002 4.50977C51.3759 4.50977 53.5443 5.62414 55.0053 7.85288C56.478 10.07 57.2142 13.1636 57.2142 17.1335C57.2142 21.115 56.478 24.2318 55.0053 26.4838C53.5443 28.7242 51.3759 29.8443 48.5002 29.8443C45.6012 29.8443 43.4213 28.7242 41.9603 26.4838C40.5108 24.2318 39.7861 21.115 39.7861 17.1335C39.7861 13.1636 40.5108 10.07 41.9603 7.85288C43.4213 5.62414 45.6012 4.50977 48.5002 4.50977ZM48.5002 8.49713C47.2711 8.49713 46.3724 9.15879 45.8042 10.4821C45.2361 11.7938 44.9519 14.0109 44.9519 17.1335C44.9519 18.1551 44.9694 19.0663 45.0041 19.8672C45.0389 20.6566 45.0911 21.3589 45.1607 21.9741L51.0396 9.66374C50.7613 9.22264 50.4134 8.92083 49.9961 8.75831C49.5901 8.5842 49.0915 8.49713 48.5002 8.49713ZM52.0137 17.1335C52.0137 15.7986 51.9847 14.6726 51.9267 13.7555L46.3782 25.2302C46.6332 25.4739 46.9348 25.6422 47.2826 25.7351C47.6422 25.8279 48.048 25.8744 48.5002 25.8744C49.3234 25.8744 49.9902 25.5958 50.5005 25.0387C51.0222 24.4815 51.4049 23.5644 51.6484 22.2875C51.8919 20.999 52.0137 19.281 52.0137 17.1335Z" fill="url(#paint2_linear_2_5657)"/>
        <path id="Vector_4" d="M68.1146 29.8095L62.8966 28.1902L71.889 9.26321H61.2964V5.11914H77.4549V8.84532L68.1146 29.8095Z" fill="url(#paint3_linear_2_5657)"/>
        <path id="Vector_5" d="M84.4419 0C87.6423 0 89.8861 0.481734 91.1732 1.4452C92.4719 2.40867 92.9995 4.06862 92.756 6.42505L92.2342 11.4049C92.1414 12.2871 92.2921 12.9778 92.6864 13.477C93.0807 13.9761 93.6488 14.3301 94.3909 14.5391C95.1447 14.7364 96.0144 14.8351 97 14.8351V19.2926C96.0259 19.2926 95.1621 19.3971 94.4083 19.6059C93.6547 19.8033 93.0807 20.1516 92.6864 20.6507C92.2921 21.1499 92.1414 21.8406 92.2342 22.7227L92.756 27.6678C93.0227 30.0475 92.5009 31.719 91.1905 32.6824C89.8918 33.646 87.6423 34.1277 84.4419 34.1277V30.297C85.5088 30.297 86.3378 30.146 86.9291 29.8443C87.5206 29.5541 87.7699 28.9679 87.6772 28.0857L87.1379 22.9492C86.9988 21.6374 87.1379 20.5868 87.5553 19.7976C87.9844 18.9965 88.6338 18.3871 89.5035 17.9693C90.373 17.5397 91.3935 17.238 92.5646 17.0638C91.3239 16.8781 90.2688 16.5763 89.3991 16.1584C88.5409 15.7405 87.9149 15.1369 87.5206 14.3476C87.1263 13.5466 86.9988 12.4903 87.1379 11.1785L87.6772 6.04199C87.7699 5.15977 87.5147 4.57357 86.9118 4.28338C86.3204 3.98157 85.4971 3.83066 84.4419 3.83066V0Z" fill="url(#paint4_linear_2_5657)"/>
        <path id="Vector_6" d="M12.2746 42.1621C13.2417 42.1621 14.0209 42.4024 14.6122 42.883C15.2037 43.3635 15.635 44.0426 15.9064 44.9202C16.1846 45.7977 16.3238 46.839 16.3238 48.0439C16.3238 49.1862 16.1568 50.2065 15.8229 51.1049C15.4889 51.9964 15.0054 52.6999 14.3723 53.2153C13.7391 53.7238 12.9703 53.978 12.0659 53.978C10.9875 53.978 10.1108 53.5914 9.43597 52.8182V57.9061L6.13818 58.2509V42.5278H9.06028L9.20639 43.771C9.65862 43.1929 10.1526 42.782 10.6883 42.5382C11.224 42.2875 11.7528 42.1621 12.2746 42.1621ZM11.2519 44.5964C10.8692 44.5964 10.5318 44.7113 10.2396 44.9411C9.94735 45.1709 9.67948 45.4843 9.43597 45.8813V50.5617C9.66557 50.903 9.9056 51.1537 10.1561 51.3139C10.4135 51.474 10.7161 51.5542 11.064 51.5542C11.6484 51.5542 12.1041 51.2895 12.4312 50.7601C12.7582 50.2238 12.9216 49.3325 12.9216 48.0857C12.9216 47.1663 12.8555 46.456 12.7233 45.9545C12.5912 45.4461 12.3999 45.0943 12.1493 44.8993C11.8989 44.6973 11.5997 44.5964 11.2519 44.5964Z" fill="url(#paint5_linear_2_5657)"/>
        <path id="Vector_7" d="M27.9881 50.4259C27.9881 50.8437 28.0437 51.1467 28.1551 51.3348C28.2733 51.5228 28.4612 51.6657 28.7186 51.7631L28.0403 53.9362C27.3862 53.8735 26.8332 53.7307 26.3809 53.5078C25.9356 53.278 25.5843 52.9332 25.3269 52.4736C24.9025 52.982 24.3598 53.3615 23.6989 53.6123C23.0379 53.856 22.3631 53.978 21.6743 53.978C20.5332 53.978 19.6218 53.6541 18.94 53.0063C18.2651 52.3517 17.9277 51.5124 17.9277 50.4886C17.9277 49.2837 18.3974 48.3538 19.3366 47.6991C20.2827 47.0445 21.6116 46.7172 23.3231 46.7172H24.8155V46.2992C24.8155 45.164 24.085 44.5964 22.6239 44.5964C22.2692 44.5964 21.8134 44.6486 21.2568 44.7531C20.7002 44.8505 20.1436 44.9932 19.587 45.1813L18.8252 42.9875C19.5419 42.7159 20.2863 42.5103 21.0585 42.3711C21.8377 42.2318 22.5335 42.1621 23.1457 42.1621C24.7946 42.1621 26.0121 42.4999 26.7983 43.1754C27.5915 43.8441 27.9881 44.8122 27.9881 46.0798V50.4259ZM22.8117 51.6169C23.1666 51.6169 23.5389 51.5124 23.9285 51.3034C24.3181 51.0876 24.6137 50.7846 24.8155 50.3946V48.5977H24.0015C23.0831 48.5977 22.4083 48.7404 21.9769 49.0259C21.5456 49.3045 21.3299 49.7155 21.3299 50.2588C21.3299 50.6836 21.4585 51.0179 21.716 51.2616C21.9804 51.4985 22.3457 51.6169 22.8117 51.6169Z" fill="url(#paint6_linear_2_5657)"/>
        <path id="Vector_8" d="M41.6355 42.5276L37.9412 53.6225H34.059L30.3228 42.5276H33.8815L36.0418 51.0943L38.2959 42.5276H41.6355Z" fill="url(#paint7_linear_2_5657)"/>
        <path id="Vector_9" d="M53.0286 50.4259C53.0286 50.8437 53.0843 51.1467 53.1956 51.3348C53.3139 51.5228 53.5017 51.6657 53.7591 51.7631L53.0808 53.9362C52.4267 53.8735 51.8737 53.7307 51.4215 53.5078C50.9762 53.278 50.6249 52.9332 50.3674 52.4736C49.9431 52.982 49.4003 53.3615 48.7394 53.6123C48.0784 53.856 47.4036 53.978 46.7148 53.978C45.5738 53.978 44.6623 53.6541 43.9805 53.0063C43.3057 52.3517 42.9683 51.5124 42.9683 50.4886C42.9683 49.2837 43.4379 48.3538 44.3771 47.6991C45.3233 47.0445 46.6522 46.7172 48.3637 46.7172H49.856V46.2992C49.856 45.164 49.1255 44.5964 47.6645 44.5964C47.3097 44.5964 46.8539 44.6486 46.2973 44.7531C45.7407 44.8505 45.1842 44.9932 44.6276 45.1813L43.8658 42.9875C44.5824 42.7159 45.3268 42.5103 46.099 42.3711C46.8783 42.2318 47.574 42.1621 48.1862 42.1621C49.8351 42.1621 51.0527 42.4999 51.8388 43.1754C52.632 43.8441 53.0286 44.8122 53.0286 46.0798V50.4259ZM47.8523 51.6169C48.2071 51.6169 48.5794 51.5124 48.969 51.3034C49.3586 51.0876 49.6543 50.7846 49.856 50.3946V48.5977H49.0421C48.1236 48.5977 47.4488 48.7404 47.0175 49.0259C46.5861 49.3045 46.3704 49.7155 46.3704 50.2588C46.3704 50.6836 46.4992 51.0179 46.7565 51.2616C47.0209 51.4985 47.3862 51.6169 47.8523 51.6169Z" fill="url(#paint8_linear_2_5657)"/>
        <path id="Vector_10" d="M56.2188 53.6227V42.5278H59.0992L59.3288 43.8128C59.8227 43.2556 60.3444 42.8412 60.8942 42.5696C61.4437 42.2979 62.0699 42.1621 62.7726 42.1621C63.7188 42.1621 64.4633 42.4511 65.006 43.0293C65.5486 43.6074 65.8199 44.4222 65.8199 45.4739V53.6227H62.5222V46.4246C62.5222 45.7421 62.4457 45.2685 62.2925 45.0037C62.1464 44.7322 61.8682 44.5964 61.4576 44.5964C61.1098 44.5964 60.7759 44.7077 60.4558 44.9307C60.1427 45.1535 59.8296 45.4634 59.5166 45.8604V53.6227H56.2188Z" fill="url(#paint9_linear_2_5657)"/>
        <path id="Vector_11" d="M76.9314 42.1621C77.7174 42.1621 78.2985 42.4199 78.6742 42.9353C79.0568 43.4436 79.2481 44.269 79.2481 45.4112V53.6227H76.42V45.7873C76.42 45.3973 76.3817 45.1222 76.3052 44.962C76.2356 44.8017 76.0894 44.7217 75.8668 44.7217C75.693 44.7217 75.512 44.774 75.3241 44.8784C75.1433 44.9759 74.9415 45.164 74.7189 45.4425V53.6227H72.4021V45.7873C72.4021 45.3973 72.3638 45.1222 72.2873 44.962C72.2177 44.8017 72.0716 44.7217 71.8489 44.7217C71.6751 44.7217 71.4941 44.774 71.3062 44.8784C71.1254 44.9759 70.9236 45.164 70.701 45.4425V53.6227H67.8311V42.5278H70.2522L70.4714 43.6038C70.8193 43.1302 71.1707 42.7715 71.5254 42.5278C71.8803 42.284 72.3012 42.1621 72.7882 42.1621C73.2056 42.1621 73.5604 42.27 73.8527 42.486C74.1519 42.695 74.3641 43.0257 74.4893 43.4784C74.8233 43.0884 75.192 42.7715 75.5955 42.5278C75.9991 42.284 76.4443 42.1621 76.9314 42.1621Z" fill="url(#paint10_linear_2_5657)"/>
        <path id="Vector_12" d="M91.1004 40.7517L91.8728 43.1754C91.4832 43.3287 91.0274 43.4401 90.5057 43.5097C89.9838 43.5794 89.3751 43.6142 88.6794 43.6142C89.3751 43.9137 89.9038 44.2863 90.2656 44.7321C90.6344 45.1708 90.8187 45.7489 90.8187 46.4664C90.8187 47.1837 90.6274 47.8245 90.2448 48.3886C89.862 48.9458 89.3195 49.3846 88.6168 49.705C87.9141 50.0254 87.0826 50.1856 86.1225 50.1856C85.6633 50.1856 85.2354 50.1438 84.8389 50.0602C84.7205 50.1229 84.6302 50.2133 84.5676 50.3318C84.5049 50.4502 84.4736 50.5721 84.4736 50.6975C84.4736 50.8716 84.5431 51.0283 84.6824 51.1675C84.8285 51.3069 85.1659 51.3765 85.6946 51.3765H87.5105C88.3732 51.3765 89.1176 51.5158 89.7438 51.7944C90.3769 52.0729 90.8674 52.4526 91.2153 52.9331C91.5631 53.4137 91.7371 53.964 91.7371 54.5839C91.7371 55.7191 91.2397 56.6141 90.2448 57.2688C89.2498 57.9234 87.7714 58.2509 85.8094 58.2509C84.3901 58.2509 83.2908 58.1046 82.5117 57.812C81.7393 57.5265 81.2002 57.1156 80.8941 56.5792C80.5949 56.0499 80.4453 55.4196 80.4453 54.6882H83.3673C83.3673 55.0087 83.43 55.2699 83.5552 55.4718C83.6874 55.6808 83.9344 55.8341 84.2962 55.9315C84.6649 56.029 85.1972 56.0778 85.8929 56.0778C86.5956 56.0778 87.1313 56.022 87.5 55.9107C87.8688 55.7992 88.1192 55.646 88.2515 55.4509C88.3906 55.2629 88.4602 55.0505 88.4602 54.8136C88.4602 54.4863 88.3314 54.2217 88.0741 54.0197C87.8166 53.8177 87.4097 53.7167 86.853 53.7167H85.0893C83.8926 53.7167 83.0229 53.4973 82.4803 53.0585C81.9376 52.6128 81.6663 52.0938 81.6663 51.5019C81.6663 51.091 81.7741 50.701 81.9898 50.3318C82.2124 49.9627 82.5221 49.6527 82.9187 49.402C82.209 49.0258 81.701 48.5836 81.3949 48.0752C81.0888 47.5598 80.9358 46.9434 80.9358 46.226C80.9358 45.3902 81.148 44.6729 81.5724 44.0739C81.9968 43.4679 82.5811 43.0013 83.3256 42.674C84.077 42.3467 84.9329 42.1829 85.8929 42.1829C86.7208 42.1968 87.441 42.1412 88.0532 42.0158C88.6654 41.8834 89.2151 41.7059 89.7021 41.4829C90.189 41.2531 90.6552 41.0093 91.1004 40.7517ZM85.9764 44.3246C85.4546 44.3246 85.0406 44.4918 84.7345 44.8262C84.4283 45.1535 84.2753 45.6062 84.2753 46.1843C84.2753 46.7971 84.4319 47.2673 84.745 47.5946C85.058 47.9219 85.4686 48.0857 85.9764 48.0857C87.1034 48.0857 87.667 47.4379 87.667 46.1425C87.667 44.9306 87.1034 44.3246 85.9764 44.3246Z" fill="url(#paint11_linear_2_5657)"/>
        </g>
        <defs>
        
        <clipPath id="clip0_2_5657">
        <rect width="97" height="59" fill="white"/>
        </clipPath>
        </defs>
    </g>
    
    <!--other-->

    <g id="office">
        <path d="M3.33325 1.5V10.5H7.33325V8.75H8.66659V10.5H12.6666V1.5H3.33325ZM4.66659 2.5H5.99992V3.5H4.66659V2.5ZM7.33325 2.5H8.66659V3.5H7.33325V2.5ZM9.99992 2.5H11.3333V3.5H9.99992V2.5ZM4.66659 4.5H5.99992V5.5H4.66659V4.5ZM7.33325 4.5H8.66659V5.5H7.33325V4.5ZM9.99992 4.5H11.3333V5.5H9.99992V4.5ZM4.66659 6.5H5.99992V7.5H4.66659V6.5ZM7.33325 6.5H8.66659V7.5H7.33325V6.5ZM9.99992 6.5H11.3333V7.5H9.99992V6.5ZM4.66659 8.5H5.99992V9.5H4.66659V8.5ZM9.99992 8.5H11.3333V9.5H9.99992V8.5Z" fill="#A7A7A7"/>
    </g>

    <g id="calendar">
        <g id="Group">
        <path id="Vector" d="M5.33329 6.5C5.15648 6.5 4.98691 6.44732 4.86189 6.35355C4.73686 6.25979 4.66663 6.13261 4.66663 6C4.66663 5.86739 4.73686 5.74021 4.86189 5.64645C4.98691 5.55268 5.15648 5.5 5.33329 5.5C5.5101 5.5 5.67967 5.55268 5.8047 5.64645C5.92972 5.74021 5.99996 5.86739 5.99996 6C5.99996 6.13261 5.92972 6.25979 5.8047 6.35355C5.67967 6.44732 5.5101 6.5 5.33329 6.5ZM5.33329 8.5C5.15648 8.5 4.98691 8.44732 4.86189 8.35355C4.73686 8.25979 4.66663 8.13261 4.66663 8C4.66663 7.86739 4.73686 7.74021 4.86189 7.64645C4.98691 7.55268 5.15648 7.5 5.33329 7.5C5.5101 7.5 5.67967 7.55268 5.8047 7.64645C5.92972 7.74021 5.99996 7.86739 5.99996 8C5.99996 8.13261 5.92972 8.25979 5.8047 8.35355C5.67967 8.44732 5.5101 8.5 5.33329 8.5ZM7.33329 8C7.33329 8.13261 7.40353 8.25979 7.52855 8.35355C7.65358 8.44732 7.82315 8.5 7.99996 8.5C8.17677 8.5 8.34634 8.44732 8.47136 8.35355C8.59639 8.25979 8.66663 8.13261 8.66663 8C8.66663 7.86739 8.59639 7.74021 8.47136 7.64645C8.34634 7.55268 8.17677 7.5 7.99996 7.5C7.82315 7.5 7.65358 7.55268 7.52855 7.64645C7.40353 7.74021 7.33329 7.86739 7.33329 8ZM10.6666 8.5C10.4898 8.5 10.3202 8.44732 10.1952 8.35355C10.0702 8.25979 9.99996 8.13261 9.99996 8C9.99996 7.86739 10.0702 7.74021 10.1952 7.64645C10.3202 7.55268 10.4898 7.5 10.6666 7.5C10.8434 7.5 11.013 7.55268 11.138 7.64645C11.2631 7.74021 11.3333 7.86739 11.3333 8C11.3333 8.13261 11.2631 8.25979 11.138 8.35355C11.013 8.44732 10.8434 8.5 10.6666 8.5ZM7.33329 6C7.33329 6.13261 7.40353 6.25979 7.52855 6.35355C7.65358 6.44732 7.82315 6.5 7.99996 6.5C8.17677 6.5 8.34634 6.44732 8.47136 6.35355C8.59639 6.25979 8.66663 6.13261 8.66663 6C8.66663 5.86739 8.59639 5.74021 8.47136 5.64645C8.34634 5.55268 8.17677 5.5 7.99996 5.5C7.82315 5.5 7.65358 5.55268 7.52855 5.64645C7.40353 5.74021 7.33329 5.86739 7.33329 6ZM10.6666 6.5C10.4898 6.5 10.3202 6.44732 10.1952 6.35355C10.0702 6.25979 9.99996 6.13261 9.99996 6C9.99996 5.86739 10.0702 5.74021 10.1952 5.64645C10.3202 5.55268 10.4898 5.5 10.6666 5.5C10.8434 5.5 11.013 5.55268 11.138 5.64645C11.2631 5.74021 11.3333 5.86739 11.3333 6C11.3333 6.13261 11.2631 6.25979 11.138 6.35355C11.013 6.44732 10.8434 6.5 10.6666 6.5ZM5.33329 3.5C5.15648 3.5 4.98691 3.55268 4.86189 3.64645C4.73686 3.74021 4.66663 3.86739 4.66663 4C4.66663 4.13261 4.73686 4.25979 4.86189 4.35355C4.98691 4.44732 5.15648 4.5 5.33329 4.5H10.6666C10.8434 4.5 11.013 4.44732 11.138 4.35355C11.2631 4.25979 11.3333 4.13261 11.3333 4C11.3333 3.86739 11.2631 3.74021 11.138 3.64645C11.013 3.55268 10.8434 3.5 10.6666 3.5H5.33329Z" fill="#A7A7A7"/>
        <path id="Vector_2" fill-rule="evenodd" clip-rule="evenodd" d="M4 1.5C3.46957 1.5 2.96086 1.65804 2.58579 1.93934C2.21071 2.22064 2 2.60218 2 3V9C2 9.39782 2.21071 9.77936 2.58579 10.0607C2.96086 10.342 3.46957 10.5 4 10.5H12C12.5304 10.5 13.0391 10.342 13.4142 10.0607C13.7893 9.77936 14 9.39782 14 9V3C14 2.60218 13.7893 2.22064 13.4142 1.93934C13.0391 1.65804 12.5304 1.5 12 1.5H4ZM12 2.5H4C3.82319 2.5 3.65362 2.55268 3.5286 2.64645C3.40357 2.74021 3.33333 2.86739 3.33333 3V9C3.33333 9.13261 3.40357 9.25979 3.5286 9.35355C3.65362 9.44732 3.82319 9.5 4 9.5H12C12.1768 9.5 12.3464 9.44732 12.4714 9.35355C12.5964 9.25979 12.6667 9.13261 12.6667 9V3C12.6667 2.86739 12.5964 2.74021 12.4714 2.64645C12.3464 2.55268 12.1768 2.5 12 2.5Z" fill="#A7A7A7"/>
        </g>
    </g>

    <g id="location">
        <path id="Vector" d="M8 6.75C7.50555 6.75 7.0222 6.64003 6.61108 6.43401C6.19995 6.22798 5.87952 5.93514 5.6903 5.59253C5.50108 5.24992 5.45157 4.87292 5.54804 4.50921C5.6445 4.14549 5.8826 3.8114 6.23223 3.54918C6.58187 3.28695 7.02732 3.10838 7.51228 3.03603C7.99723 2.96368 8.4999 3.00081 8.95671 3.14273C9.41353 3.28464 9.80397 3.52496 10.0787 3.83331C10.3534 4.14165 10.5 4.50416 10.5 4.875C10.4992 5.3721 10.2356 5.84867 9.76689 6.20017C9.29822 6.55167 8.6628 6.74941 8 6.75ZM8 3.75C7.70333 3.75 7.41332 3.81598 7.16665 3.9396C6.91997 4.06321 6.72771 4.23892 6.61418 4.44448C6.50065 4.65005 6.47095 4.87625 6.52882 5.09448C6.5867 5.31271 6.72956 5.51316 6.93934 5.6705C7.14912 5.82783 7.41639 5.93498 7.70737 5.97838C7.99834 6.02179 8.29994 5.99951 8.57403 5.91437C8.84812 5.82922 9.08238 5.68502 9.24721 5.50002C9.41203 5.31501 9.5 5.09751 9.5 4.875C9.4996 4.57672 9.34144 4.29075 9.06022 4.07983C8.779 3.86892 8.3977 3.7503 8 3.75Z" fill="#A7A7A7"/>
        <path id="Vector_2" d="M8.00001 11.25L3.78201 7.51912C3.7234 7.4631 3.66539 7.40673 3.60801 7.35C2.8875 6.63817 2.49826 5.76871 2.50001 4.875C2.50001 3.78098 3.07947 2.73177 4.11092 1.95818C5.14237 1.1846 6.54132 0.75 8.00001 0.75C9.4587 0.75 10.8576 1.1846 11.8891 1.95818C12.9205 2.73177 13.5 3.78098 13.5 4.875C13.5018 5.7683 13.1127 6.63737 12.3925 7.34888L12.392 7.35C12.392 7.35 12.242 7.49775 12.2195 7.51763L8.00001 11.25ZM4.40601 6.89813C4.40701 6.89813 4.52301 7.01362 4.54951 7.03837L8.00001 10.0905L11.455 7.03425C11.477 7.01362 11.594 6.89738 11.5945 6.897C12.1831 6.31542 12.5012 5.60514 12.5 4.875C12.5 3.97989 12.0259 3.12145 11.182 2.48851C10.3381 1.85558 9.19348 1.5 8.00001 1.5C6.80653 1.5 5.66194 1.85558 4.81803 2.48851C3.97411 3.12145 3.50001 3.97989 3.50001 4.875C3.49896 5.60559 3.81739 6.31628 4.40651 6.89813H4.40601Z" fill="#A7A7A7"/>
    </g>
</svg>
